<svg
  width="118.68"
  height="25.801"
  viewBox="0 0 118.68 25.801"
  xmlns="http://www.w3.org/2000/svg"
>
  <g
    id="svgGroup"
    stroke-linecap="round"
    fill-rule="nonzero"
    font-size="9pt"
    stroke="#000"
    stroke-width="0.5mm"
    fill="#000"
    style="stroke:#000;stroke-width:0.5mm;fill:#000"
  >
    <path
      fill="rgb(255 84 47)"
      stroke="rgb(255 84 47)"
      d="M 7.08 23.941 L 8.97 23.941 L 8.97 25.801 L 6.6 25.801 Q 3.03 25.801 3.03 22.231 L 3.03 15.631 A 3.356 3.356 0 0 0 2.996 15.132 Q 2.908 14.548 2.595 14.236 A 1.302 1.302 0 0 0 2.124 13.942 Q 1.748 13.801 1.2 13.801 L 0 13.801 L 0 11.941 L 1.2 11.941 Q 2.16 11.941 2.595 11.491 Q 3.03 11.041 3.03 10.111 L 3.03 3.571 Q 3.03 0.001 6.6 0.001 L 8.97 0.001 L 8.97 1.861 L 7.08 1.861 A 3.356 3.356 0 0 0 6.582 1.895 Q 5.998 1.983 5.685 2.296 A 1.302 1.302 0 0 0 5.391 2.766 Q 5.25 3.143 5.25 3.691 L 5.25 9.631 Q 5.25 13.201 1.68 13.201 L 1.68 12.541 Q 5.25 12.541 5.25 16.111 L 5.25 22.111 Q 5.25 23.041 5.685 23.491 A 1.301 1.301 0 0 0 6.166 23.798 Q 6.54 23.941 7.08 23.941 Z"
      id="0"
      vector-effect="non-scaling-stroke"
    />
    <path
      d="M 35.88 21.931 L 33.57 21.931 L 33.57 0.481 L 35.88 0.481 L 35.88 21.931 Z M 33.87 11.821 L 20.73 11.821 L 20.73 9.751 L 33.87 9.751 L 33.87 11.821 Z M 21.03 0.481 L 18.72 0.481 L 18.72 21.931 L 21.03 21.931 L 21.03 0.481 Z"
      id="2"
      fill="#cbd5e1"
      stroke="#cbd5e1"
      vector-effect="non-scaling-stroke"
    />
    <path
      d="M 49.14 0.481 L 49.14 21.931 L 46.83 21.931 L 46.83 0.481 L 49.14 0.481 Z"
      id="4"
      fill="rgb(255 84 47)"
      stroke="rgb(255 84 47)"
      vector-effect="non-scaling-stroke"
    />
    <path
      d="M 68.07 2.251 L 68.07 21.931 L 65.76 21.931 L 65.76 2.251 L 68.07 2.251 Z M 75.21 0.481 L 75.21 2.551 L 58.62 2.551 L 58.62 0.481 L 75.21 0.481 Z"
      id="6"
      vector-effect="non-scaling-stroke"
      fill="rgb(255 84 47)"
      stroke="rgb(255 84 47)"
    />
    <path
      d="M 83.28 18.451 Q 85.02 20.311 87.285 21.361 Q 89.55 22.411 92.43 22.411 A 12.97 12.97 0 0 0 94.424 22.264 A 9.646 9.646 0 0 0 96.81 21.586 A 8.499 8.499 0 0 0 97.808 21.072 A 6.655 6.655 0 0 0 99.765 19.306 A 5.417 5.417 0 0 0 100.455 18.047 A 5.845 5.845 0 0 0 100.83 15.931 A 6.432 6.432 0 0 0 100.747 14.88 A 4.809 4.809 0 0 0 100.005 12.961 Q 99.476 12.173 98.536 11.563 A 8.156 8.156 0 0 0 97.35 10.936 A 12.688 12.688 0 0 0 95.947 10.43 Q 95.172 10.197 94.252 10.005 A 30.659 30.659 0 0 0 92.46 9.691 Q 91.062 9.474 90.026 9.206 A 12.58 12.58 0 0 1 89.04 8.911 A 6.884 6.884 0 0 1 88.379 8.643 Q 88.013 8.471 87.729 8.274 A 2.796 2.796 0 0 1 87.18 7.786 Q 86.61 7.111 86.61 6.151 A 4.361 4.361 0 0 1 86.611 6.048 Q 86.636 5.007 87.16 4.211 A 3.808 3.808 0 0 1 88.17 3.196 Q 89.145 2.511 90.472 2.255 A 9.05 9.05 0 0 1 92.19 2.101 Q 93.273 2.101 94.188 2.305 A 6.191 6.191 0 0 1 96.045 3.031 Q 97.59 3.961 98.88 5.551 L 100.56 3.961 A 13.51 13.51 0 0 0 100.435 3.816 A 11.846 11.846 0 0 0 96.915 1.051 Q 94.86 0.001 92.19 0.001 A 12.26 12.26 0 0 0 90.378 0.129 A 9.277 9.277 0 0 0 88.05 0.781 A 8.058 8.058 0 0 0 87.174 1.224 A 6.355 6.355 0 0 0 85.23 2.956 A 5.214 5.214 0 0 0 84.589 4.112 A 5.554 5.554 0 0 0 84.21 6.181 A 5.595 5.595 0 0 0 84.265 6.978 A 4.261 4.261 0 0 0 84.99 8.851 A 3.974 3.974 0 0 0 85.475 9.416 Q 85.88 9.809 86.434 10.146 A 8.17 8.17 0 0 0 87.525 10.696 A 13.024 13.024 0 0 0 88.872 11.167 Q 89.615 11.386 90.498 11.571 A 31.956 31.956 0 0 0 92.22 11.881 A 27.774 27.774 0 0 1 93.391 12.081 Q 95.016 12.397 96.07 12.838 A 5.567 5.567 0 0 1 97.02 13.336 A 3.94 3.94 0 0 1 97.214 13.474 Q 98.43 14.4 98.43 15.961 A 4.428 4.428 0 0 1 98.43 16.022 A 3.552 3.552 0 0 1 97.65 18.256 A 4.561 4.561 0 0 1 96.694 19.145 A 5.8 5.8 0 0 1 95.52 19.771 Q 94.17 20.311 92.43 20.311 A 10.96 10.96 0 0 1 91.617 20.281 A 9.186 9.186 0 0 1 89.535 19.891 Q 88.2 19.471 87.06 18.691 Q 85.92 17.911 84.99 16.831 L 83.28 18.451 Z"
      id="8"
      vector-effect="non-scaling-stroke"
      fill="#cbd5e1"
      stroke="#cbd5e1"
    />
    <path
      d="M 112.08 25.801 L 109.71 25.801 L 109.71 23.941 L 111.6 23.941 Q 112.56 23.941 112.995 23.491 Q 113.43 23.041 113.43 22.111 L 113.43 16.111 Q 113.43 12.541 117 12.541 L 117 13.201 Q 113.43 13.201 113.43 9.631 L 113.43 3.691 A 3.356 3.356 0 0 0 113.396 3.192 Q 113.308 2.608 112.995 2.296 A 1.302 1.302 0 0 0 112.524 2.002 Q 112.148 1.861 111.6 1.861 L 109.71 1.861 L 109.71 0.001 L 112.08 0.001 Q 115.65 0.001 115.65 3.571 L 115.65 10.111 Q 115.65 11.041 116.085 11.491 A 1.301 1.301 0 0 0 116.566 11.798 Q 116.94 11.941 117.48 11.941 L 118.68 11.941 L 118.68 13.801 L 117.48 13.801 A 3.356 3.356 0 0 0 116.982 13.835 Q 116.398 13.923 116.085 14.236 A 1.302 1.302 0 0 0 115.791 14.706 Q 115.65 15.083 115.65 15.631 L 115.65 22.231 Q 115.65 25.801 112.08 25.801 Z"
      id="10"
      vector-effect="non-scaling-stroke"
      fill="rgb(255 84 47)"
      stroke="rgb(255 84 47)"
    />
  </g>
</svg>
