<svg
  width="255"
  height="91"
  viewBox="0 0 255 91"
  xmlns="http://www.w3.org/2000/svg"
>
  <g
    id="svgGroup"
    stroke-linecap="round"
    fill-rule="evenodd"
    font-size="9pt"
    stroke="#000"
    stroke-width="1.9mm"
    fill="#000000"
    style="stroke:#000;stroke-width:1.9mm;fill:#000000"
  >
    <path
      d="M 23.1 89.6 L 23.1 91 Q 19.5 91 16.85 89.65 Q 14.2 88.3 12.8 85.8 A 10.696 10.696 0 0 1 11.636 82.503 A 14.787 14.787 0 0 1 11.4 79.8 L 11.4 55.5 A 10.198 10.198 0 0 0 10.971 52.467 A 7.955 7.955 0 0 0 8.35 48.6 A 10.328 10.328 0 0 0 4.606 46.687 Q 2.567 46.1 0 46.1 L 0 44.8 A 18.148 18.148 0 0 0 3.36 44.508 Q 6.342 43.946 8.35 42.3 A 8.156 8.156 0 0 0 11.34 36.6 A 11.623 11.623 0 0 0 11.4 35.4 L 11.4 11.2 A 14.632 14.632 0 0 1 11.668 8.329 A 10.621 10.621 0 0 1 12.8 5.2 Q 14.2 2.7 16.85 1.35 A 12.109 12.109 0 0 1 20.332 0.223 A 16.453 16.453 0 0 1 23.1 0 L 23.1 1.4 A 13.708 13.708 0 0 0 20.043 1.722 Q 17.815 2.231 16.209 3.548 A 8.529 8.529 0 0 0 15.7 4 A 8.547 8.547 0 0 0 13.291 8.397 A 12.782 12.782 0 0 0 13 11.2 L 13 35.4 A 11.683 11.683 0 0 1 12.608 38.496 A 9.206 9.206 0 0 1 10.95 41.8 A 9.91 9.91 0 0 1 7.1 44.734 A 13.202 13.202 0 0 1 5.2 45.4 A 12.066 12.066 0 0 1 8.214 46.645 A 9.612 9.612 0 0 1 10.95 49.05 A 9.754 9.754 0 0 1 12.902 53.893 A 12.816 12.816 0 0 1 13 55.5 L 13 79.8 A 12.61 12.61 0 0 0 13.334 82.787 A 8.501 8.501 0 0 0 15.7 87 Q 18.4 89.6 23.1 89.6 Z"
      id="0"
    />
    <path
      d="M 83.2 8 L 84.8 8 L 84.8 74 L 83.2 74 L 83.2 8 Z M 35 8 L 36.6 8 L 36.6 74 L 35 74 L 35 8 Z M 35.8 39.6 L 84.1 39.6 L 84.1 41 L 35.8 41 L 35.8 39.6 Z"
      id="1"
    />
    <path d="M 104.6 8 L 106.2 8 L 106.2 74 L 104.6 74 L 104.6 8 Z" id="2" />
    <path
      d="M 117.2 8 L 169.4 8 L 169.4 9.4 L 144.1 9.4 L 144.1 74 L 142.5 74 L 142.5 9.4 L 117.2 9.4 L 117.2 8 Z"
      id="3"
    />
    <path
      d="M 224.1 22.3 L 222.8 23.3 A 21.472 21.472 0 0 0 220.587 17.815 A 16.42 16.42 0 0 0 214.9 12 A 23.291 23.291 0 0 0 207.991 9.245 Q 205.04 8.559 201.609 8.43 A 42.944 42.944 0 0 0 200 8.4 A 33.43 33.43 0 0 0 194.56 8.821 Q 191.406 9.342 188.764 10.505 A 20.892 20.892 0 0 0 188.55 10.6 A 21.273 21.273 0 0 0 184.356 13.083 A 16.771 16.771 0 0 0 181 16.5 Q 178.3 20.2 178.3 24.8 A 13.952 13.952 0 0 0 178.931 29.095 A 11.261 11.261 0 0 0 182.2 34.1 A 15.121 15.121 0 0 0 185.194 36.141 Q 188.394 37.849 193.403 39.08 A 66.03 66.03 0 0 0 195.7 39.6 L 207.2 42 A 59.111 59.111 0 0 1 212.266 43.252 Q 218.167 45.013 221.15 47.6 Q 225.3 51.2 225.3 57.3 A 15.527 15.527 0 0 1 224.167 63.277 A 14.717 14.717 0 0 1 222.25 66.6 A 18.484 18.484 0 0 1 216.751 71.378 A 23.78 23.78 0 0 1 213.85 72.8 Q 208.5 75 201.4 75 A 43.406 43.406 0 0 1 194.13 74.416 A 34.836 34.836 0 0 1 188.85 73.1 A 24.24 24.24 0 0 1 182.969 70.235 A 20.878 20.878 0 0 1 179.5 67.3 A 18.051 18.051 0 0 1 175.385 60.183 A 23.155 23.155 0 0 1 174.7 57.4 L 176.2 56.6 A 20.127 20.127 0 0 0 177.682 61.75 A 16.392 16.392 0 0 0 180.6 66.2 A 20.143 20.143 0 0 0 187.542 71.055 A 24.542 24.542 0 0 0 189.5 71.8 A 35.064 35.064 0 0 0 197.253 73.406 A 43.301 43.301 0 0 0 201.4 73.6 A 35.929 35.929 0 0 0 207.924 73.031 A 29.018 29.018 0 0 0 212.65 71.75 Q 217.7 69.9 220.7 66.25 A 13.114 13.114 0 0 0 223.595 59.23 A 17.222 17.222 0 0 0 223.7 57.3 Q 223.7 52 219.75 48.7 A 15.916 15.916 0 0 0 216.759 46.774 Q 212.894 44.806 206.5 43.5 L 195 41.1 A 59.301 59.301 0 0 1 190.77 40.049 Q 188.678 39.441 186.936 38.733 A 26.217 26.217 0 0 1 184.4 37.55 A 18.441 18.441 0 0 1 181.505 35.647 Q 179.648 34.141 178.55 32.3 A 12.746 12.746 0 0 1 177.005 28.161 A 17.626 17.626 0 0 1 176.7 24.8 Q 176.7 20.1 179.5 16.05 A 18.365 18.365 0 0 1 184.209 11.402 A 24.074 24.074 0 0 1 187.5 9.5 A 24.217 24.217 0 0 1 193.519 7.568 Q 196.146 7.071 199.138 7.009 A 41.552 41.552 0 0 1 200 7 A 40.116 40.116 0 0 1 206.6 7.513 Q 210.364 8.142 213.453 9.539 A 22.511 22.511 0 0 1 215.6 10.65 A 17.791 17.791 0 0 1 222.808 18.789 A 24.705 24.705 0 0 1 224.1 22.3 Z"
      id="4"
    />
    <path
      d="M 231.9 1.4 L 231.9 0 A 16.997 16.997 0 0 1 234.725 0.223 Q 236.385 0.503 237.758 1.134 A 10.231 10.231 0 0 1 238.2 1.35 Q 240.8 2.7 242.2 5.2 A 10.696 10.696 0 0 1 243.364 8.497 A 14.787 14.787 0 0 1 243.6 11.2 L 243.6 35.5 A 10.198 10.198 0 0 0 244.029 38.533 A 7.955 7.955 0 0 0 246.65 42.4 A 10.328 10.328 0 0 0 250.394 44.314 Q 252.433 44.9 255 44.9 L 255 46.2 A 18.148 18.148 0 0 0 251.64 46.492 Q 248.658 47.055 246.65 48.7 A 8.156 8.156 0 0 0 243.66 54.4 A 11.623 11.623 0 0 0 243.6 55.6 L 243.6 79.8 A 14.632 14.632 0 0 1 243.332 82.671 A 10.621 10.621 0 0 1 242.2 85.8 Q 240.8 88.3 238.2 89.65 Q 235.714 90.941 232.223 90.998 A 19.888 19.888 0 0 1 231.9 91 L 231.9 89.6 A 13.708 13.708 0 0 0 234.957 89.279 Q 237.185 88.769 238.791 87.453 A 8.529 8.529 0 0 0 239.3 87 A 8.547 8.547 0 0 0 241.709 82.604 A 12.782 12.782 0 0 0 242 79.8 L 242 55.6 A 11.683 11.683 0 0 1 242.392 52.505 A 9.206 9.206 0 0 1 244.05 49.2 A 9.91 9.91 0 0 1 247.9 46.267 A 13.202 13.202 0 0 1 249.8 45.6 A 13.008 13.008 0 0 1 246.832 44.323 A 10.069 10.069 0 0 1 244.05 41.9 A 9.458 9.458 0 0 1 242.128 37.325 A 12.589 12.589 0 0 1 242 35.5 L 242 11.2 A 12.61 12.61 0 0 0 241.666 8.213 A 8.501 8.501 0 0 0 239.3 4 Q 236.6 1.4 231.9 1.4 Z"
      id="5"
    />
  </g>
</svg>
